<svg xmlns="http://www.w3.org/2000/svg" viewBox="0 0 800 500" role="img" aria-labelledby="title desc">
  <title id="title">Autenticação e segurança documental</title>
  <desc id="desc">Escudo, documento e selo de verificação em uma composição institucional azul e teal.</desc>
  <defs>
    <linearGradient id="bg" x1="0" y1="0" x2="1" y2="1">
      <stop offset="0" stop-color="#edf6fb"/>
      <stop offset="1" stop-color="#e9f7f4"/>
    </linearGradient>
    <linearGradient id="shield" x1="0" y1="0" x2="1" y2="1">
      <stop offset="0" stop-color="#0a4a86"/>
      <stop offset="1" stop-color="#0b9188"/>
    </linearGradient>
    <filter id="shadow" x="-30%" y="-30%" width="160%" height="160%">
      <feDropShadow dx="0" dy="14" stdDeviation="16" flood-color="#14324c" flood-opacity=".14"/>
    </filter>
  </defs>
  <rect width="800" height="500" rx="32" fill="url(#bg)"/>
  <circle cx="126" cy="96" r="118" fill="#125a9c" opacity=".07"/>
  <circle cx="684" cy="408" r="150" fill="#0b9188" opacity=".07"/>
  <g transform="translate(90 84)" filter="url(#shadow)">
    <rect width="300" height="330" rx="26" fill="#fff" stroke="#b6cad9" stroke-width="4"/>
    <path d="M204 0v70h96" fill="#e8f4f7" stroke="#b6cad9" stroke-width="4"/>
    <path d="M52 94h134M52 136h188M52 178h150M52 220h112" stroke="#67859e" stroke-width="11" stroke-linecap="round"/>
    <circle cx="230" cy="256" r="46" fill="#edf8f6" stroke="#0b9188" stroke-width="5"/>
    <path d="m209 257 14 14 29-35" fill="none" stroke="#0b9188" stroke-width="9" stroke-linecap="round" stroke-linejoin="round"/>
  </g>
  <g transform="translate(408 70)" filter="url(#shadow)">
    <path d="M154 0c55 34 105 44 154 48v120c0 98-63 160-154 204C63 328 0 266 0 168V48C49 44 99 34 154 0Z" fill="url(#shield)"/>
    <path d="m91 180 42 43 88-105" fill="none" stroke="#fff" stroke-width="24" stroke-linecap="round" stroke-linejoin="round"/>
  </g>
  <g transform="translate(520 338)">
    <circle cx="52" cy="52" r="50" fill="#fff" stroke="#b6cad9" stroke-width="4"/>
    <circle cx="52" cy="52" r="35" fill="#0b9188"/>
    <path d="m36 52 11 11 22-27" fill="none" stroke="#fff" stroke-width="7" stroke-linecap="round" stroke-linejoin="round"/>
    <path d="M102 34h112M102 64h82" stroke="#67859e" stroke-width="9" stroke-linecap="round"/>
  </g>
</svg>