<svg xmlns="http://www.w3.org/2000/svg" viewBox="0 0 800 500" role="img" aria-labelledby="title desc">
  <title id="title">Acompanhamento, análise e suporte</title>
  <desc id="desc">Linha de acompanhamento com lupa, mensagens e marca de conclusão.</desc>
  <defs>
    <linearGradient id="bg" x1="0" y1="0" x2="1" y2="1">
      <stop offset="0" stop-color="#eff7fb"/>
      <stop offset="1" stop-color="#e8f7f4"/>
    </linearGradient>
    <linearGradient id="accent" x1="0" y1="0" x2="1" y2="1">
      <stop offset="0" stop-color="#0b4a86"/>
      <stop offset="1" stop-color="#0b938a"/>
    </linearGradient>
    <filter id="shadow" x="-30%" y="-30%" width="160%" height="160%">
      <feDropShadow dx="0" dy="14" stdDeviation="16" flood-color="#14324c" flood-opacity=".13"/>
    </filter>
  </defs>
  <rect width="800" height="500" rx="32" fill="url(#bg)"/>
  <path d="M110 352c104-102 184-121 273-68 98 59 172 33 298-92" fill="none" stroke="#a9c0d0" stroke-width="6" stroke-linecap="round" stroke-dasharray="3 18"/>
  <g transform="translate(92 88)" filter="url(#shadow)">
    <circle cx="128" cy="128" r="112" fill="#fff" stroke="#b7cbd9" stroke-width="5"/>
    <circle cx="128" cy="128" r="67" fill="#edf6fb" stroke="#0b4a86" stroke-width="14"/>
    <path d="m178 179 76 76" stroke="#0b4a86" stroke-width="24" stroke-linecap="round"/>
    <path d="M96 128h64M128 96v64" stroke="#0b938a" stroke-width="12" stroke-linecap="round"/>
  </g>
  <g transform="translate(362 78)" filter="url(#shadow)">
    <rect width="306" height="172" rx="28" fill="#fff" stroke="#b7cbd9" stroke-width="4"/>
    <path d="M72 172 42 214l88-42" fill="#fff" stroke="#b7cbd9" stroke-width="4" stroke-linejoin="round"/>
    <circle cx="66" cy="60" r="20" fill="#0b938a"/>
    <path d="M108 50h132M108 80h98M54 122h186" stroke="#66849e" stroke-width="10" stroke-linecap="round"/>
  </g>
  <g transform="translate(430 300)" filter="url(#shadow)">
    <rect width="238" height="112" rx="26" fill="#fff" stroke="#b7cbd9" stroke-width="4"/>
    <circle cx="56" cy="56" r="34" fill="url(#accent)"/>
    <path d="m41 56 11 11 23-28" fill="none" stroke="#fff" stroke-width="8" stroke-linecap="round" stroke-linejoin="round"/>
    <path d="M110 42h88M110 70h62" stroke="#66849e" stroke-width="9" stroke-linecap="round"/>
  </g>
  <circle cx="316" cy="352" r="26" fill="#0b4a86"/>
  <circle cx="390" cy="318" r="20" fill="#0b938a"/>
  <circle cx="690" cy="180" r="30" fill="#0b938a"/>
</svg>